<?xml version="1.0" standalone="no"?><!DOCTYPE svg PUBLIC "-//W3C//DTD SVG 1.1//EN" "http://www.w3.org/Graphics/SVG/1.1/DTD/svg11.dtd"><svg t="1559552060750" class="icon" style="" viewBox="0 0 1024 1024" version="1.1" xmlns="http://www.w3.org/2000/svg" p-id="2709" xmlns:xlink="http://www.w3.org/1999/xlink" width="64" height="64"><defs><style type="text/css"></style></defs><path d="M915.467633 814.19767 108.432083 814.19767c-23.060205 0-41.74373-18.696828-41.74373-41.74373L66.688353 452.42209l890.521986 0 0 320.03185C957.210339 795.499819 938.526815 814.19767 915.467633 814.19767M150.174789 730.71021 317.146639 730.71021l0-41.741683L150.174789 688.968527 150.174789 730.71021zM567.60697 605.481068 150.174789 605.481068l0 41.741683 417.432181 0L567.60697 605.481068zM66.688353 243.698325c0-23.059182 18.683525-41.74373 41.74373-41.74373l807.03555 0c23.059182 0 41.742706 18.684548 41.742706 41.74373l0 125.236306L66.688353 368.93463 66.688353 243.698325z" p-id="2710"></path></svg>