<?xml version="1.0" standalone="no"?><!DOCTYPE svg PUBLIC "-//W3C//DTD SVG 1.1//EN" "http://www.w3.org/Graphics/SVG/1.1/DTD/svg11.dtd"><svg t="1559555559679" class="icon" style="" viewBox="0 0 1052 1024" version="1.1" xmlns="http://www.w3.org/2000/svg" p-id="8107" xmlns:xlink="http://www.w3.org/1999/xlink" width="65.75" height="64"><defs><style type="text/css"></style></defs><path d="M617.125753 981.57021 241.066743 910.858758 112.49903 910.858758 112.49903 576.582461l183.206832-35.353293L633.199302 679.436145c16.068684 6.428203 32.142232 19.28461 41.782713 32.142232l218.564991-118.922368c16.073549-9.645346 32.142232-12.856406 51.426842-12.856406 38.570436 0 73.928594 22.496887 93.21442 54.639119 12.856406 25.714029 16.068684 54.643984 9.64048 80.356797-9.64048 25.714029-25.714029 48.2097-51.426842 61.067322L617.125753 981.57021 617.125753 981.57021 617.125753 981.57021zM183.211697 843.362016l67.495526 0 353.562123 67.495526 353.562123-192.852178c9.645346-3.212277 16.073549-12.856406 16.073549-22.496887 3.212277-9.645346 3.212277-19.28461-3.217142-25.714029-9.64048-16.073549-32.142232-22.501752-48.210916-16.073549l-215.35393 115.711307c0 19.28461-3.212277 35.358158-9.64048 51.426842-19.28461 44.998639-64.284465 73.928594-112.49903 73.928594-16.068684 0-32.142232-3.217142-44.998639-9.645346l-134.995916-54.639119L404.988965 737.29119l170.355291 70.712668c16.068684 6.428203 41.782713-3.212277 48.210916-19.28461l3.217142-12.856406c0-12.857623-6.428203-28.92509-22.501752-35.353293L289.277659 608.723477l-106.065961 22.501752L183.211697 843.362016 183.211697 843.362016 183.211697 843.362016zM0 576.582461l70.712668 0L70.712668 910.858758 0 910.858758 0 576.582461 0 576.582461 0 576.582461zM809.977931 422.300719c16.073549 0 32.142232 9.645346 32.142232 25.714029 0 12.856406-16.068684 25.712813-32.142232 25.712813L646.055708 473.727561l0 93.21442c0 12.856406-12.856406 25.714029-35.358158 25.714029-19.28461 0-32.142232-12.856406-32.142232-25.714029l0-93.21442L414.634311 473.727561c-16.073549 0-32.142232-12.856406-32.142232-25.712813 0-12.857623 16.068684-25.714029 32.142232-25.714029l163.921006 0 0-80.351932L414.634311 341.948787c-16.073549 0-32.142232-9.645346-32.142232-25.714029 0-12.856406 16.068684-25.714029 32.142232-25.714029l138.206977 0L411.417169 81.595002c-9.64048-12.856406-3.212277-25.714029 16.073549-35.354509 16.068684-6.428203 35.353293 0 44.998639 9.64048l144.636397 212.136787L758.549872 59.098115c9.645346-12.857623 28.929955-16.073549 44.998639-9.645346 16.073549 6.428203 22.501752 22.501752 16.073549 32.142232l0 0-141.42412 212.136787 134.995916 0c16.068684 0 32.142232 9.645346 32.142232 25.714029 0 16.073549-16.073549 25.712813-32.142232 25.712813L649.267985 345.158631l0 80.358014L809.977931 422.300719 809.977931 422.300719 809.977931 422.300719zM809.977931 422.300719" p-id="8108"></path></svg>